# xmcd
#
# Track frame offsets:
#	150
#	67405
#	99250
#	123732
#	153840
#	170002
#	192327
#	214335
#	239062
#	254600
#	275070
#
# Disc length: 3842 seconds
#
# Revision: 2
# Processed by: cddbd v1.4PL0 Copyright (c) Steve Scherf et al.
# Submitted via: audiograbber 1.80.04
#
DISCID=b30f000b
DTITLE=Various Artist - Ice Blue
DYEAR=1900
DGENRE=
TTITLE0=Grant Green - Idle Moments
TTITLE1=Stanley Turrentine - I Want A Little Girl
TTITLE2=Kenny Burrell - Chitlins Con Carne
TTITLE3=Lou Donaldson - Blues Walk
TTITLE4=Holly Cole - The Heart of Saturday Night
TTITLE5=John Scofield - Flower Power
TTITLE6=Cassandra Wilson - Love is Blindness
TTITLE7=Kurt Elling - Never Say Goodbye
TTITLE8=Marsia Monte - Speak Low
TTITLE9=Charlie Hunter Quartet - Shango... The Ballad
TTITLE10=Julie London - Cry Me A River
EXTD=
EXTT0=
EXTT1=
EXTT2=
EXTT3=
EXTT4=
EXTT5=
EXTT6=
EXTT7=
EXTT8=
EXTT9=
EXTT10=
PLAYORDER=
